# xmcd
#
# Track frame offsets:
# 150
# 19376
# 34965
# 50375
# 66171
# 82709
# 97067
# 111399
# 131808
# 144686
# 160873
# 179193
# 200198
# 214736
#
# Disc length: 2943 seconds
#
#
# Revision: 0
# Processed by: cddbd v1.5.1PL0 Copyright (c) Steve Scherf et al.
# Submitted via: FreeRIP 2.51 
#
DISCID=db0b7d0e
DTITLE=The Vandehey Brothers - Lead Me Home
DYEAR=1991
DGENRE=Gospel
TTITLE0=Sevant Song
TTITLE1=How Can I Keep from Singing
TTITLE2=Precious Lord, Take My Hand
TTITLE3=As I Kneel Before You
TTITLE4=In the Garden
TTITLE5=Somebody Bigger than You and I
TTITLE6=Ragin' River
TTITLE7=Nearer My God to Thee
TTITLE8=He
TTITLE9=Do Whatever He Tells You
TTITLE10=Be Not Afraid
TTITLE11=The Old Rugged Cross
TTITLE12=May the Good Lord Bless and Keep You
TTITLE13=Ragin' River (reprise)
EXTD=
EXTT0=
EXTT1=
EXTT2=
EXTT3=
EXTT4=
EXTT5=
EXTT6=
EXTT7=
EXTT8=
EXTT9=
EXTT10=
EXTT11=
EXTT12=
EXTT13=
PLAYORDER=
